<svg height="16" viewBox="0 0 512 512" width="16" xmlns="http://www.w3.org/2000/svg"><path d="M467 512H45c-24.813 0-45-20.188-45-45V45C0 20.187 20.188 0 45 0h422c24.813 0 45 20.188 45 45v422c0 24.813-20.188 45-45 45zm0 0" fill="#e1ebf0"/><path d="M467 0H256v512h211c24.813 0 45-20.188 45-45V45c0-24.813-20.188-45-45-45zm0 0" fill="#cde1e6"/><path d="M45 30c-8.27 0-15 6.73-15 15v422c0 8.27 6.73 15 15 15h422c8.27 0 15-6.73 15-15V45c0-8.27-6.73-15-15-15zm0 0" fill="#ff6379"/><path d="M467 30H256v452h211c8.27 0 15-6.73 15-15V45c0-8.27-6.73-15-15-15zm0 0" fill="#ff415b"/><path d="M171.195 252a14.982 14.982 0 01-12.004-5.988l-79.18-105.344a15.01 15.01 0 01-2.863-11.129A15.026 15.026 0 0183 119.652C133.29 81.937 193.113 62 256 62s122.71 19.938 173 57.652a15.017 15.017 0 015.852 9.887 15.024 15.024 0 01-2.86 11.129L352.81 246.012c-4.977 6.62-14.372 7.957-20.993 2.988-22.039-16.527-48.254-25.266-75.816-25.266-27.559 0-53.777 8.739-75.816 25.266-2.7 2.023-5.86 3-8.989 3zm0 0" fill="#485959"/><path d="M331.816 249c6.621 4.969 16.016 3.629 20.989-2.988l79.183-105.344a15.01 15.01 0 002.864-11.129 15.026 15.026 0 00-5.852-9.887C378.71 81.937 318.887 62 256 62v161.734c27.563 0 53.777 8.739 75.816 25.266zm0 0" fill="#3f4a4a"/><path d="M113.27 134.984l61.324 81.586c24.48-14.98 52.34-22.836 81.406-22.836s56.926 7.856 81.406 22.836l61.324-81.586C356.352 106.816 307.312 92 256 92s-100.352 14.816-142.73 42.984zm0 0" fill="#e1ebf0"/><path d="M337.406 216.57l61.324-81.586C356.352 106.816 307.312 92 256 92v101.734c29.066 0 56.926 7.856 81.406 22.836zm0 0" fill="#cde1e6"/><path d="M256 223.734c-8.285 0-15-6.714-15-15v-60c0-8.285 6.715-15 15-15s15 6.715 15 15v60c0 8.286-6.715 15-15 15zm0 0" fill="#485959"/><path d="M271 208.734v-60c0-8.285-6.715-15-15-15v90c8.285 0 15-6.714 15-15zm0 0" fill="#3f4a4a"/></svg>